<?xml version="1.0" encoding="utf-8" standalone="no"?>
<!DOCTYPE svg PUBLIC "-//W3C//DTD SVG 1.1//EN"
  "http://www.w3.org/Graphics/SVG/1.1/DTD/svg11.dtd">
<!-- Created with matplotlib (http://matplotlib.org/) -->
<svg height="432pt" version="1.1" viewBox="0 0 576 432" width="576pt" xmlns="http://www.w3.org/2000/svg" xmlns:xlink="http://www.w3.org/1999/xlink">
 <defs>
  <style type="text/css">
*{stroke-linecap:butt;stroke-linejoin:round;stroke-miterlimit:100000;}
  </style>
 </defs>
 <g id="figure_1">
  <g id="patch_1">
   <path d="M 0 432 
L 576 432 
L 576 0 
L 0 0 
z
" style="fill:#ffffff;"/>
  </g>
  <g id="axes_1">
   <g id="patch_2">
    <path d="M 72 388.8 
L 518.4 388.8 
L 518.4 43.2 
L 72 43.2 
z
" style="fill:#ffffff;"/>
   </g>
   <g id="line2d_1">
    <path clip-path="url(#p54e351855c)" d="M 72 55.758931 
L 72.992 107.274087 
L 74.976 130.091092 
L 75.968 145.857114 
L 76.96 167.08858 
L 79.936 244.6652 
L 80.928 266.253379 
L 81.92 283.785361 
L 82.912 296.811902 
L 83.904 306.96243 
L 84.896 315.491629 
L 85.888 321.897159 
L 86.88 327.28641 
L 87.872 331.1801 
L 89.856 337.178024 
L 91.84 341.849376 
L 94.816 346.406753 
L 96.8 348.884136 
L 98.784 351.068387 
L 100.768 352.387778 
L 101.76 353.504077 
L 103.744 354.403462 
L 105.728 355.911585 
L 107.712 356.748315 
L 108.704 357.052218 
L 109.696 357.478833 
L 110.688 358.429601 
L 112.672 359.012876 
L 113.664 358.89768 
L 115.648 359.837089 
L 116.64 360.068993 
L 117.632 360.579315 
L 118.624 360.808933 
L 119.616 361.279955 
L 120.608 361.297981 
L 121.6 361.163826 
L 122.592 361.662057 
L 123.584 361.959953 
L 124.576 362.409753 
L 125.568 362.368425 
L 127.552 362.867739 
L 128.544 362.882856 
L 129.536 363.313804 
L 130.528 363.500657 
L 131.52 363.459644 
L 132.512 363.280012 
L 134.496 364.015669 
L 136.48 364.163612 
L 137.472 364.54528 
L 138.464 364.396757 
L 139.456 364.915804 
L 140.448 364.973337 
L 141.44 364.660164 
L 142.432 365.166097 
L 144.416 365.336285 
L 145.408 365.126365 
L 146.4 365.394438 
L 147.392 365.996211 
L 148.384 365.686122 
L 149.376 365.64851 
L 152.352 366.252109 
L 153.344 366.297533 
L 154.336 366.006183 
L 155.328 366.46848 
L 157.312 366.313143 
L 158.304 366.770313 
L 159.296 366.666415 
L 160.288 366.880862 
L 161.28 366.973071 
L 162.272 366.723384 
L 163.264 367.153089 
L 166.24 367.220275 
L 167.232 367.300085 
L 168.224 367.505088 
L 169.216 367.507637 
L 170.208 367.753857 
L 171.2 367.475533 
L 172.192 367.491621 
L 173.184 367.705264 
L 175.168 367.80627 
L 177.152 367.830017 
L 178.144 368.058186 
L 179.136 367.788677 
L 180.128 368.163152 
L 183.104 368.145339 
L 184.096 368.478163 
L 185.088 368.66463 
L 186.08 368.346372 
L 187.072 368.258596 
L 188.064 368.468122 
L 189.056 368.807833 
L 190.048 368.277972 
L 191.04 368.686803 
L 192.032 368.535039 
L 194.016 368.94578 
L 195.008 368.622145 
L 196 369.129031 
L 196.992 368.860099 
L 197.984 368.989567 
L 199.968 369.020206 
L 200.96 369.208691 
L 202.944 369.279535 
L 203.936 369.082409 
L 204.928 369.394533 
L 207.904 369.14971 
L 209.888 369.579667 
L 210.88 369.361825 
L 212.864 369.581325 
L 213.856 369.390107 
L 215.84 369.748273 
L 216.832 369.455377 
L 217.824 369.648359 
L 218.816 369.6028 
L 220.8 369.947486 
L 221.792 369.760332 
L 223.776 369.792987 
L 224.768 369.997365 
L 226.752 370.01094 
L 227.744 369.930455 
L 228.736 370.240085 
L 229.728 370.020733 
L 232.704 370.238745 
L 233.696 370.342947 
L 234.688 370.178923 
L 236.672 370.510696 
L 237.664 370.120109 
L 238.656 370.401965 
L 239.648 370.177134 
L 241.632 370.196498 
L 242.624 370.396761 
L 243.616 370.199329 
L 245.6 370.516762 
L 246.592 370.366622 
L 247.584 370.546704 
L 248.576 370.461866 
L 249.568 370.760146 
L 250.56 370.534764 
L 251.552 370.810546 
L 252.544 370.642458 
L 253.536 370.794995 
L 257.504 370.789387 
L 258.496 370.894822 
L 260.48 370.826642 
L 262.464 370.867355 
L 263.456 371.048411 
L 264.448 371.038707 
L 265.44 370.893655 
L 266.432 370.934743 
L 267.424 370.785584 
L 268.416 371.118167 
L 269.408 370.763011 
L 270.4 370.958357 
L 272.384 371.046383 
L 273.376 371.323549 
L 274.368 371.076037 
L 275.36 370.965397 
L 278.336 371.218691 
L 279.328 371.14785 
L 280.32 371.280261 
L 281.312 371.265645 
L 282.304 371.485205 
L 283.296 371.002564 
L 284.288 371.361214 
L 285.28 371.548217 
L 287.264 371.028421 
L 289.248 371.497829 
L 290.24 371.325981 
L 292.224 371.439384 
L 293.216 371.349339 
L 294.208 371.412744 
L 295.2 371.712403 
L 296.192 371.867863 
L 297.184 371.475929 
L 300.16 371.744879 
L 301.152 371.349358 
L 302.144 371.721283 
L 304.128 371.60761 
L 305.12 371.378583 
L 306.112 371.73894 
L 307.104 371.616909 
L 308.096 371.655684 
L 309.088 371.536596 
L 310.08 371.713072 
L 311.072 371.548624 
L 312.064 371.893728 
L 313.056 371.784074 
L 314.048 372.009598 
L 315.04 371.735928 
L 316.032 371.868482 
L 317.024 371.751697 
L 322.976 371.905418 
L 323.968 371.864763 
L 324.96 372.099223 
L 326.944 371.937028 
L 327.936 372.077603 
L 328.928 371.868313 
L 329.92 372.098392 
L 331.904 372.009866 
L 332.896 372.075637 
L 333.888 372.347499 
L 335.872 371.985675 
L 336.864 372.186282 
L 338.848 371.91347 
L 339.84 372.134504 
L 340.832 372.083759 
L 341.824 372.200808 
L 342.816 371.916769 
L 343.808 372.235301 
L 345.792 372.180016 
L 346.784 372.473387 
L 347.776 372.157225 
L 349.76 372.251654 
L 352.736 372.147253 
L 353.728 372.395123 
L 354.72 372.205217 
L 355.712 372.499283 
L 357.696 372.349821 
L 361.664 372.547245 
L 363.648 372.187262 
L 365.632 372.784654 
L 366.624 372.466671 
L 367.616 372.371643 
L 373.568 372.704 
L 374.56 372.483386 
L 375.552 372.72356 
L 376.544 372.535943 
L 377.536 372.508632 
L 378.528 372.62784 
L 379.52 372.455029 
L 381.504 372.7016 
L 382.496 372.769534 
L 383.488 372.661166 
L 384.48 372.71952 
L 385.472 372.593414 
L 387.456 372.727967 
L 390.432 372.867196 
L 391.424 372.763565 
L 392.416 372.943981 
L 395.392 372.710126 
L 396.384 372.608431 
L 397.376 372.669829 
L 398.368 372.955065 
L 399.36 373.112343 
L 400.352 372.73484 
L 401.344 372.827038 
L 402.336 372.790993 
L 403.328 372.927361 
L 404.32 372.828629 
L 405.312 372.954487 
L 408.288 372.910296 
L 409.28 373.059372 
L 410.272 372.747067 
L 412.256 373.074796 
L 413.248 372.870793 
L 416.224 372.999114 
L 417.216 372.910202 
L 421.184 373.183904 
L 422.176 373.141083 
L 423.168 373.230419 
L 424.16 372.991159 
L 425.152 373.168134 
L 426.144 373.058788 
L 429.12 373.231969 
L 431.104 373.055515 
L 432.096 373.336442 
L 433.088 373.0667 
L 434.08 372.980569 
L 435.072 373.167241 
L 436.064 373.129027 
L 437.056 373.303381 
L 438.048 372.990016 
L 439.04 373.169008 
L 441.024 373.159764 
L 442.016 373.569574 
L 443.008 373.108404 
L 444 373.109237 
L 445.984 373.373994 
L 446.976 373.200856 
L 447.968 373.413148 
L 451.936 373.317041 
L 452.928 373.443417 
L 453.92 373.190046 
L 454.912 373.173906 
L 455.904 373.393587 
L 456.896 373.497395 
L 459.872 373.382748 
L 460.864 373.313515 
L 461.856 373.43142 
L 465.824 373.286602 
L 467.808 373.534732 
L 468.8 373.406212 
L 473.76 373.453899 
L 474.752 373.394596 
L 475.744 373.521648 
L 476.736 373.404884 
L 478.72 373.522423 
L 479.712 373.472702 
L 481.696 373.690894 
L 482.688 373.49729 
L 483.68 373.554402 
L 484.672 373.746498 
L 485.664 373.523231 
L 486.656 373.702927 
L 486.656 373.702927 
" style="fill:none;stroke:#0000ff;stroke-linecap:square;"/>
   </g>
   <g id="line2d_2">
    <path clip-path="url(#p54e351855c)" d="M 72 92.498783 
L 72.992 111.899496 
L 74.976 135.1109 
L 75.968 155.366332 
L 77.952 216.43548 
L 78.944 232.859971 
L 79.936 259.867512 
L 80.928 281.042209 
L 81.92 267.720768 
L 82.912 134.884564 
L 83.904 254.405127 
L 84.896 307.464899 
L 85.888 324.597902 
L 86.88 310.135605 
L 87.872 342.94166 
L 88.864 336.384984 
L 89.856 343.300148 
L 90.848 340.434668 
L 91.84 281.552177 
L 92.832 350.887254 
L 93.824 327.856544 
L 94.816 309.939645 
L 95.808 337.924934 
L 96.8 348.907131 
L 97.792 344.703199 
L 98.784 354.386549 
L 99.776 353.07457 
L 100.768 354.551396 
L 101.76 357.223078 
L 102.752 350.164002 
L 103.744 356.621221 
L 104.736 322.69841 
L 105.728 356.445773 
L 106.72 341.310955 
L 107.712 341.911494 
L 108.704 350.774745 
L 109.696 355.688824 
L 110.688 358.051957 
L 111.68 321.392812 
L 112.672 355.711737 
L 113.664 352.16601 
L 114.656 335.487261 
L 115.648 358.943906 
L 116.64 363.551309 
L 117.632 361.679159 
L 118.624 364.290592 
L 119.616 365.373123 
L 120.608 357.85481 
L 121.6 363.233426 
L 122.592 353.062758 
L 123.584 357.332792 
L 124.576 364.246585 
L 125.568 365.93332 
L 126.56 363.796998 
L 127.552 351.6022 
L 128.544 364.831488 
L 129.536 358.065246 
L 130.528 361.466139 
L 131.52 360.8791 
L 132.512 363.606785 
L 133.504 367.655098 
L 134.496 364.41109 
L 135.488 369.316652 
L 136.48 364.140246 
L 137.472 363.819094 
L 138.464 362.998336 
L 139.456 359.854708 
L 140.448 361.981723 
L 141.44 367.37223 
L 142.432 367.947668 
L 143.424 364.477535 
L 144.416 364.21708 
L 145.408 364.092047 
L 146.4 365.995494 
L 147.392 360.633384 
L 148.384 371.03052 
L 149.376 364.449744 
L 150.368 360.650338 
L 151.36 368.834291 
L 152.352 366.199998 
L 153.344 369.763154 
L 154.336 366.235251 
L 155.328 367.876477 
L 156.32 365.038734 
L 157.312 358.147986 
L 158.304 366.198943 
L 159.296 353.242266 
L 160.288 358.365727 
L 161.28 368.53766 
L 162.272 360.856187 
L 163.264 367.157602 
L 164.256 354.089733 
L 165.248 368.031199 
L 166.24 361.72691 
L 167.232 369.32393 
L 168.224 366.664904 
L 169.216 365.916604 
L 170.208 365.632787 
L 171.2 368.551266 
L 172.192 368.426443 
L 173.184 354.858574 
L 174.176 364.81398 
L 175.168 362.225013 
L 176.16 368.500535 
L 177.152 364.817646 
L 178.144 370.209814 
L 179.136 368.691855 
L 180.128 369.500115 
L 181.12 368.312985 
L 182.112 369.79316 
L 183.104 367.764574 
L 184.096 366.098379 
L 185.088 370.821059 
L 186.08 362.645807 
L 187.072 370.646824 
L 188.064 364.244581 
L 189.056 368.533863 
L 190.048 368.745855 
L 191.04 370.317445 
L 192.032 370.11774 
L 193.024 366.345703 
L 194.016 368.958797 
L 195.008 370.019602 
L 196 366.943711 
L 196.992 369.394383 
L 197.984 370.063898 
L 198.976 365.407189 
L 199.968 370.014328 
L 200.96 371.083939 
L 201.952 367.451227 
L 202.944 369.175008 
L 203.936 364.186468 
L 204.928 369.147111 
L 205.92 370.700086 
L 206.912 366.208409 
L 207.904 367.787619 
L 208.896 368.806342 
L 209.888 367.216928 
L 210.88 367.473744 
L 211.872 366.663164 
L 212.864 369.788625 
L 213.856 368.74459 
L 214.848 368.005228 
L 215.84 372.054832 
L 217.824 365.432845 
L 218.816 367.565291 
L 219.808 370.338539 
L 220.8 365.064943 
L 221.792 366.339217 
L 222.784 370.997877 
L 223.776 369.247781 
L 224.768 369.374344 
L 225.76 368.269796 
L 226.752 365.700498 
L 227.744 369.678674 
L 228.736 366.570984 
L 229.728 352.287114 
L 230.72 368.335055 
L 231.712 365.560225 
L 232.704 372.022189 
L 233.696 368.202006 
L 234.688 367.795635 
L 235.68 368.271826 
L 236.672 369.101496 
L 237.664 371.565457 
L 238.656 372.590719 
L 239.648 368.508946 
L 240.64 369.214717 
L 241.632 369.556383 
L 242.624 364.812768 
L 243.616 364.279491 
L 244.608 370.045283 
L 245.6 367.908618 
L 246.592 367.775701 
L 247.584 372.327943 
L 249.568 367.677984 
L 250.56 369.909281 
L 251.552 369.614232 
L 252.544 368.680201 
L 253.536 369.738976 
L 254.528 365.16034 
L 255.52 365.128884 
L 256.512 369.027246 
L 257.504 371.627051 
L 258.496 365.450616 
L 259.488 369.590555 
L 260.48 369.65526 
L 261.472 371.905172 
L 262.464 371.143793 
L 263.456 372.870422 
L 264.448 371.155078 
L 265.44 368.746488 
L 266.432 369.714639 
L 267.424 369.600732 
L 268.416 371.751056 
L 269.408 372.169582 
L 270.4 368.880855 
L 271.392 369.390797 
L 272.384 369.468554 
L 273.376 368.547152 
L 274.368 372.313652 
L 275.36 367.14542 
L 276.352 369.891668 
L 277.344 369.917771 
L 278.336 368.58027 
L 279.328 368.297455 
L 280.32 370.655473 
L 281.312 365.134078 
L 282.304 369.70752 
L 283.296 365.940624 
L 284.288 373.500545 
L 285.28 371.66407 
L 286.272 370.676303 
L 287.264 368.489883 
L 288.256 367.814883 
L 289.248 370.103238 
L 290.24 371.386266 
L 291.232 370.385525 
L 292.224 368.725078 
L 293.216 370.273992 
L 294.208 368.262545 
L 295.2 370.597518 
L 296.192 371.767219 
L 297.184 370.026562 
L 298.176 370.264632 
L 299.168 373.153553 
L 300.16 371.274891 
L 301.152 366.836054 
L 302.144 367.284902 
L 303.136 369.813727 
L 304.128 368.577369 
L 305.12 370.039008 
L 306.112 372.410156 
L 307.104 367.247619 
L 308.096 367.670496 
L 309.088 370.721074 
L 311.072 371.636807 
L 312.064 368.352352 
L 313.056 372.555598 
L 314.048 365.253706 
L 315.04 366.97638 
L 316.032 370.290814 
L 317.024 371.703674 
L 318.016 368.71374 
L 319.008 370.3966 
L 320 368.954473 
L 320.992 371.713535 
L 321.984 369.421963 
L 322.976 370.031678 
L 323.968 371.098969 
L 324.96 370.464469 
L 325.952 371.436574 
L 326.944 369.110092 
L 327.936 369.808875 
L 328.928 372.039064 
L 329.92 370.274572 
L 330.912 369.238368 
L 331.904 367.534811 
L 332.896 370.180916 
L 333.888 371.025932 
L 334.88 366.685154 
L 335.872 372.248684 
L 336.864 370.046918 
L 337.856 373.89484 
L 338.848 370.904168 
L 339.84 371.451762 
L 340.832 370.329469 
L 341.824 369.552639 
L 342.816 365.088041 
L 343.808 371.742275 
L 344.8 372.16974 
L 345.792 369.184078 
L 346.784 372.210372 
L 348.768 369.591715 
L 349.76 371.978578 
L 350.752 370.600945 
L 351.744 369.492469 
L 352.736 371.248313 
L 353.728 372.182238 
L 354.72 372.475758 
L 355.712 371.034211 
L 356.704 370.006629 
L 357.696 372.298465 
L 358.688 368.935277 
L 359.68 367.531436 
L 360.672 370.677885 
L 361.664 369.989807 
L 362.656 373.372875 
L 363.648 371.156027 
L 364.64 371.686746 
L 365.632 371.308271 
L 366.624 371.270988 
L 367.616 367.945084 
L 368.608 369.411416 
L 369.6 372.854602 
L 370.592 371.34951 
L 371.584 371.281351 
L 372.576 370.845316 
L 373.568 371.954531 
L 374.56 370.864723 
L 375.552 371.5012 
L 376.544 370.240453 
L 378.528 370.625335 
L 379.52 371.459145 
L 380.512 369.231855 
L 381.504 370.528857 
L 382.496 369.174032 
L 383.488 368.276625 
L 384.48 371.423918 
L 385.472 368.67999 
L 386.464 368.01232 
L 387.456 372.104139 
L 388.448 368.855991 
L 389.44 370.31618 
L 390.432 368.94535 
L 391.424 371.768854 
L 392.416 368.673398 
L 393.408 373.514783 
L 394.4 369.532995 
L 395.392 368.173266 
L 396.384 372.547107 
L 397.376 370.639125 
L 398.368 373.315711 
L 399.36 370.680258 
L 400.352 369.567299 
L 401.344 372.175488 
L 402.336 371.813678 
L 403.328 369.419063 
L 404.32 371.733179 
L 405.312 369.468896 
L 406.304 372.166102 
L 407.296 371.10825 
L 408.288 371.772967 
L 409.28 372.237715 
L 410.272 370.434041 
L 411.264 367.56123 
L 412.256 371.840572 
L 413.248 369.113836 
L 414.24 369.059335 
L 415.232 370.725082 
L 416.224 374.301369 
L 417.216 373.211719 
L 418.208 371.925633 
L 419.2 369.140045 
L 420.192 365.254523 
L 421.184 369.788678 
L 422.176 373.108043 
L 423.168 373.100238 
L 424.16 371.317131 
L 425.152 367.996711 
L 426.144 369.556462 
L 427.136 371.474648 
L 428.128 369.483794 
L 429.12 372.024193 
L 430.112 371.971617 
L 431.104 368.081508 
L 432.096 367.632475 
L 433.088 371.064296 
L 434.08 370.626363 
L 435.072 370.936336 
L 436.064 371.768643 
L 437.056 369.713531 
L 438.048 374.809781 
L 439.04 370.342916 
L 440.032 369.019547 
L 441.024 370.385631 
L 442.016 372.846111 
L 443.008 373.30701 
L 444 370.476255 
L 444.992 373.943145 
L 445.984 370.638281 
L 446.976 361.770891 
L 447.968 370.805106 
L 448.96 371.208498 
L 449.952 372.704467 
L 450.944 371.576848 
L 451.936 373.922473 
L 452.928 373.029047 
L 453.92 370.161009 
L 454.912 374.494482 
L 456.896 373.455563 
L 457.888 370.014855 
L 458.88 371.169 
L 459.872 369.898603 
L 460.864 371.579484 
L 461.856 369.402662 
L 462.848 371.495821 
L 463.84 371.835193 
L 464.832 371.597335 
L 465.824 370.798594 
L 466.816 369.253055 
L 467.808 371.902852 
L 468.8 370.468055 
L 469.792 371.325146 
L 470.784 373.769279 
L 471.776 372.96653 
L 472.768 370.329258 
L 473.76 369.522422 
L 474.752 372.132193 
L 475.744 369.961646 
L 476.736 372.942246 
L 477.728 372.355523 
L 478.72 367.190771 
L 479.712 370.394543 
L 480.704 372.641238 
L 481.696 369.763734 
L 482.688 371.735051 
L 483.68 371.80909 
L 484.672 370.192043 
L 485.664 372.263766 
L 486.656 369.991758 
L 486.656 369.991758 
" style="fill:none;stroke:#008000;stroke-linecap:square;"/>
   </g>
   <g id="patch_3">
    <path d="M 72 43.2 
L 518.4 43.2 
" style="fill:none;stroke:#000000;stroke-linecap:square;stroke-linejoin:miter;"/>
   </g>
   <g id="patch_4">
    <path d="M 72 388.8 
L 72 43.2 
" style="fill:none;stroke:#000000;stroke-linecap:square;stroke-linejoin:miter;"/>
   </g>
   <g id="patch_5">
    <path d="M 518.4 388.8 
L 518.4 43.2 
" style="fill:none;stroke:#000000;stroke-linecap:square;stroke-linejoin:miter;"/>
   </g>
   <g id="patch_6">
    <path d="M 72 388.8 
L 518.4 388.8 
" style="fill:none;stroke:#000000;stroke-linecap:square;stroke-linejoin:miter;"/>
   </g>
   <g id="matplotlib.axis_1">
    <g id="xtick_1">
     <g id="line2d_3">
      <path clip-path="url(#p54e351855c)" d="M 72 388.8 
L 72 43.2 
" style="fill:none;stroke:#000000;stroke-dasharray:1.000000,3.000000;stroke-dashoffset:0.0;stroke-width:0.5;"/>
     </g>
     <g id="line2d_4">
      <defs>
       <path d="M 0 0 
L 0 -4 
" id="m855dc82ab3" style="stroke:#000000;stroke-width:0.5;"/>
      </defs>
      <g>
       <use style="stroke:#000000;stroke-width:0.5;" x="72.0" xlink:href="#m855dc82ab3" y="388.8"/>
      </g>
     </g>
     <g id="line2d_5">
      <defs>
       <path d="M 0 0 
L 0 4 
" id="m9e1a622e32" style="stroke:#000000;stroke-width:0.5;"/>
      </defs>
      <g>
       <use style="stroke:#000000;stroke-width:0.5;" x="72.0" xlink:href="#m9e1a622e32" y="43.2"/>
      </g>
     </g>
     <g id="text_1">
      <!-- 0 -->
      <defs>
       <path d="M 31.78125 66.40625 
Q 24.171875 66.40625 20.328125 58.90625 
Q 16.5 51.421875 16.5 36.375 
Q 16.5 21.390625 20.328125 13.890625 
Q 24.171875 6.390625 31.78125 6.390625 
Q 39.453125 6.390625 43.28125 13.890625 
Q 47.125 21.390625 47.125 36.375 
Q 47.125 51.421875 43.28125 58.90625 
Q 39.453125 66.40625 31.78125 66.40625 
M 31.78125 74.21875 
Q 44.046875 74.21875 50.515625 64.515625 
Q 56.984375 54.828125 56.984375 36.375 
Q 56.984375 17.96875 50.515625 8.265625 
Q 44.046875 -1.421875 31.78125 -1.421875 
Q 19.53125 -1.421875 13.0625 8.265625 
Q 6.59375 17.96875 6.59375 36.375 
Q 6.59375 54.828125 13.0625 64.515625 
Q 19.53125 74.21875 31.78125 74.21875 
" id="BitstreamVeraSans-Roman-30"/>
      </defs>
      <g transform="translate(68.1825 401.918125)scale(0.12 -0.12)">
       <use xlink:href="#BitstreamVeraSans-Roman-30"/>
      </g>
     </g>
    </g>
    <g id="xtick_2">
     <g id="line2d_6">
      <path clip-path="url(#p54e351855c)" d="M 121.6 388.8 
L 121.6 43.2 
" style="fill:none;stroke:#000000;stroke-dasharray:1.000000,3.000000;stroke-dashoffset:0.0;stroke-width:0.5;"/>
     </g>
     <g id="line2d_7">
      <g>
       <use style="stroke:#000000;stroke-width:0.5;" x="121.6" xlink:href="#m855dc82ab3" y="388.8"/>
      </g>
     </g>
     <g id="line2d_8">
      <g>
       <use style="stroke:#000000;stroke-width:0.5;" x="121.6" xlink:href="#m9e1a622e32" y="43.2"/>
      </g>
     </g>
     <g id="text_2">
      <!-- 50 -->
      <defs>
       <path d="M 10.796875 72.90625 
L 49.515625 72.90625 
L 49.515625 64.59375 
L 19.828125 64.59375 
L 19.828125 46.734375 
Q 21.96875 47.46875 24.109375 47.828125 
Q 26.265625 48.1875 28.421875 48.1875 
Q 40.625 48.1875 47.75 41.5 
Q 54.890625 34.8125 54.890625 23.390625 
Q 54.890625 11.625 47.5625 5.09375 
Q 40.234375 -1.421875 26.90625 -1.421875 
Q 22.3125 -1.421875 17.546875 -0.640625 
Q 12.796875 0.140625 7.71875 1.703125 
L 7.71875 11.625 
Q 12.109375 9.234375 16.796875 8.0625 
Q 21.484375 6.890625 26.703125 6.890625 
Q 35.15625 6.890625 40.078125 11.328125 
Q 45.015625 15.765625 45.015625 23.390625 
Q 45.015625 31 40.078125 35.4375 
Q 35.15625 39.890625 26.703125 39.890625 
Q 22.75 39.890625 18.8125 39.015625 
Q 14.890625 38.140625 10.796875 36.28125 
z
" id="BitstreamVeraSans-Roman-35"/>
      </defs>
      <g transform="translate(113.965 401.918125)scale(0.12 -0.12)">
       <use xlink:href="#BitstreamVeraSans-Roman-35"/>
       <use x="63.623046875" xlink:href="#BitstreamVeraSans-Roman-30"/>
      </g>
     </g>
    </g>
    <g id="xtick_3">
     <g id="line2d_9">
      <path clip-path="url(#p54e351855c)" d="M 171.2 388.8 
L 171.2 43.2 
" style="fill:none;stroke:#000000;stroke-dasharray:1.000000,3.000000;stroke-dashoffset:0.0;stroke-width:0.5;"/>
     </g>
     <g id="line2d_10">
      <g>
       <use style="stroke:#000000;stroke-width:0.5;" x="171.2" xlink:href="#m855dc82ab3" y="388.8"/>
      </g>
     </g>
     <g id="line2d_11">
      <g>
       <use style="stroke:#000000;stroke-width:0.5;" x="171.2" xlink:href="#m9e1a622e32" y="43.2"/>
      </g>
     </g>
     <g id="text_3">
      <!-- 100 -->
      <defs>
       <path d="M 12.40625 8.296875 
L 28.515625 8.296875 
L 28.515625 63.921875 
L 10.984375 60.40625 
L 10.984375 69.390625 
L 28.421875 72.90625 
L 38.28125 72.90625 
L 38.28125 8.296875 
L 54.390625 8.296875 
L 54.390625 0 
L 12.40625 0 
z
" id="BitstreamVeraSans-Roman-31"/>
      </defs>
      <g transform="translate(159.7475 401.918125)scale(0.12 -0.12)">
       <use xlink:href="#BitstreamVeraSans-Roman-31"/>
       <use x="63.623046875" xlink:href="#BitstreamVeraSans-Roman-30"/>
       <use x="127.24609375" xlink:href="#BitstreamVeraSans-Roman-30"/>
      </g>
     </g>
    </g>
    <g id="xtick_4">
     <g id="line2d_12">
      <path clip-path="url(#p54e351855c)" d="M 220.8 388.8 
L 220.8 43.2 
" style="fill:none;stroke:#000000;stroke-dasharray:1.000000,3.000000;stroke-dashoffset:0.0;stroke-width:0.5;"/>
     </g>
     <g id="line2d_13">
      <g>
       <use style="stroke:#000000;stroke-width:0.5;" x="220.8" xlink:href="#m855dc82ab3" y="388.8"/>
      </g>
     </g>
     <g id="line2d_14">
      <g>
       <use style="stroke:#000000;stroke-width:0.5;" x="220.8" xlink:href="#m9e1a622e32" y="43.2"/>
      </g>
     </g>
     <g id="text_4">
      <!-- 150 -->
      <g transform="translate(209.3475 401.918125)scale(0.12 -0.12)">
       <use xlink:href="#BitstreamVeraSans-Roman-31"/>
       <use x="63.623046875" xlink:href="#BitstreamVeraSans-Roman-35"/>
       <use x="127.24609375" xlink:href="#BitstreamVeraSans-Roman-30"/>
      </g>
     </g>
    </g>
    <g id="xtick_5">
     <g id="line2d_15">
      <path clip-path="url(#p54e351855c)" d="M 270.4 388.8 
L 270.4 43.2 
" style="fill:none;stroke:#000000;stroke-dasharray:1.000000,3.000000;stroke-dashoffset:0.0;stroke-width:0.5;"/>
     </g>
     <g id="line2d_16">
      <g>
       <use style="stroke:#000000;stroke-width:0.5;" x="270.4" xlink:href="#m855dc82ab3" y="388.8"/>
      </g>
     </g>
     <g id="line2d_17">
      <g>
       <use style="stroke:#000000;stroke-width:0.5;" x="270.4" xlink:href="#m9e1a622e32" y="43.2"/>
      </g>
     </g>
     <g id="text_5">
      <!-- 200 -->
      <defs>
       <path d="M 19.1875 8.296875 
L 53.609375 8.296875 
L 53.609375 0 
L 7.328125 0 
L 7.328125 8.296875 
Q 12.9375 14.109375 22.625 23.890625 
Q 32.328125 33.6875 34.8125 36.53125 
Q 39.546875 41.84375 41.421875 45.53125 
Q 43.3125 49.21875 43.3125 52.78125 
Q 43.3125 58.59375 39.234375 62.25 
Q 35.15625 65.921875 28.609375 65.921875 
Q 23.96875 65.921875 18.8125 64.3125 
Q 13.671875 62.703125 7.8125 59.421875 
L 7.8125 69.390625 
Q 13.765625 71.78125 18.9375 73 
Q 24.125 74.21875 28.421875 74.21875 
Q 39.75 74.21875 46.484375 68.546875 
Q 53.21875 62.890625 53.21875 53.421875 
Q 53.21875 48.921875 51.53125 44.890625 
Q 49.859375 40.875 45.40625 35.40625 
Q 44.1875 33.984375 37.640625 27.21875 
Q 31.109375 20.453125 19.1875 8.296875 
" id="BitstreamVeraSans-Roman-32"/>
      </defs>
      <g transform="translate(258.9475 401.918125)scale(0.12 -0.12)">
       <use xlink:href="#BitstreamVeraSans-Roman-32"/>
       <use x="63.623046875" xlink:href="#BitstreamVeraSans-Roman-30"/>
       <use x="127.24609375" xlink:href="#BitstreamVeraSans-Roman-30"/>
      </g>
     </g>
    </g>
    <g id="xtick_6">
     <g id="line2d_18">
      <path clip-path="url(#p54e351855c)" d="M 320 388.8 
L 320 43.2 
" style="fill:none;stroke:#000000;stroke-dasharray:1.000000,3.000000;stroke-dashoffset:0.0;stroke-width:0.5;"/>
     </g>
     <g id="line2d_19">
      <g>
       <use style="stroke:#000000;stroke-width:0.5;" x="320.0" xlink:href="#m855dc82ab3" y="388.8"/>
      </g>
     </g>
     <g id="line2d_20">
      <g>
       <use style="stroke:#000000;stroke-width:0.5;" x="320.0" xlink:href="#m9e1a622e32" y="43.2"/>
      </g>
     </g>
     <g id="text_6">
      <!-- 250 -->
      <g transform="translate(308.5475 401.918125)scale(0.12 -0.12)">
       <use xlink:href="#BitstreamVeraSans-Roman-32"/>
       <use x="63.623046875" xlink:href="#BitstreamVeraSans-Roman-35"/>
       <use x="127.24609375" xlink:href="#BitstreamVeraSans-Roman-30"/>
      </g>
     </g>
    </g>
    <g id="xtick_7">
     <g id="line2d_21">
      <path clip-path="url(#p54e351855c)" d="M 369.6 388.8 
L 369.6 43.2 
" style="fill:none;stroke:#000000;stroke-dasharray:1.000000,3.000000;stroke-dashoffset:0.0;stroke-width:0.5;"/>
     </g>
     <g id="line2d_22">
      <g>
       <use style="stroke:#000000;stroke-width:0.5;" x="369.6" xlink:href="#m855dc82ab3" y="388.8"/>
      </g>
     </g>
     <g id="line2d_23">
      <g>
       <use style="stroke:#000000;stroke-width:0.5;" x="369.6" xlink:href="#m9e1a622e32" y="43.2"/>
      </g>
     </g>
     <g id="text_7">
      <!-- 300 -->
      <defs>
       <path d="M 40.578125 39.3125 
Q 47.65625 37.796875 51.625 33 
Q 55.609375 28.21875 55.609375 21.1875 
Q 55.609375 10.40625 48.1875 4.484375 
Q 40.765625 -1.421875 27.09375 -1.421875 
Q 22.515625 -1.421875 17.65625 -0.515625 
Q 12.796875 0.390625 7.625 2.203125 
L 7.625 11.71875 
Q 11.71875 9.328125 16.59375 8.109375 
Q 21.484375 6.890625 26.8125 6.890625 
Q 36.078125 6.890625 40.9375 10.546875 
Q 45.796875 14.203125 45.796875 21.1875 
Q 45.796875 27.640625 41.28125 31.265625 
Q 36.765625 34.90625 28.71875 34.90625 
L 20.21875 34.90625 
L 20.21875 43.015625 
L 29.109375 43.015625 
Q 36.375 43.015625 40.234375 45.921875 
Q 44.09375 48.828125 44.09375 54.296875 
Q 44.09375 59.90625 40.109375 62.90625 
Q 36.140625 65.921875 28.71875 65.921875 
Q 24.65625 65.921875 20.015625 65.03125 
Q 15.375 64.15625 9.8125 62.3125 
L 9.8125 71.09375 
Q 15.4375 72.65625 20.34375 73.4375 
Q 25.25 74.21875 29.59375 74.21875 
Q 40.828125 74.21875 47.359375 69.109375 
Q 53.90625 64.015625 53.90625 55.328125 
Q 53.90625 49.265625 50.4375 45.09375 
Q 46.96875 40.921875 40.578125 39.3125 
" id="BitstreamVeraSans-Roman-33"/>
      </defs>
      <g transform="translate(358.1475 401.918125)scale(0.12 -0.12)">
       <use xlink:href="#BitstreamVeraSans-Roman-33"/>
       <use x="63.623046875" xlink:href="#BitstreamVeraSans-Roman-30"/>
       <use x="127.24609375" xlink:href="#BitstreamVeraSans-Roman-30"/>
      </g>
     </g>
    </g>
    <g id="xtick_8">
     <g id="line2d_24">
      <path clip-path="url(#p54e351855c)" d="M 419.2 388.8 
L 419.2 43.2 
" style="fill:none;stroke:#000000;stroke-dasharray:1.000000,3.000000;stroke-dashoffset:0.0;stroke-width:0.5;"/>
     </g>
     <g id="line2d_25">
      <g>
       <use style="stroke:#000000;stroke-width:0.5;" x="419.2" xlink:href="#m855dc82ab3" y="388.8"/>
      </g>
     </g>
     <g id="line2d_26">
      <g>
       <use style="stroke:#000000;stroke-width:0.5;" x="419.2" xlink:href="#m9e1a622e32" y="43.2"/>
      </g>
     </g>
     <g id="text_8">
      <!-- 350 -->
      <g transform="translate(407.7475 401.918125)scale(0.12 -0.12)">
       <use xlink:href="#BitstreamVeraSans-Roman-33"/>
       <use x="63.623046875" xlink:href="#BitstreamVeraSans-Roman-35"/>
       <use x="127.24609375" xlink:href="#BitstreamVeraSans-Roman-30"/>
      </g>
     </g>
    </g>
    <g id="xtick_9">
     <g id="line2d_27">
      <path clip-path="url(#p54e351855c)" d="M 468.8 388.8 
L 468.8 43.2 
" style="fill:none;stroke:#000000;stroke-dasharray:1.000000,3.000000;stroke-dashoffset:0.0;stroke-width:0.5;"/>
     </g>
     <g id="line2d_28">
      <g>
       <use style="stroke:#000000;stroke-width:0.5;" x="468.8" xlink:href="#m855dc82ab3" y="388.8"/>
      </g>
     </g>
     <g id="line2d_29">
      <g>
       <use style="stroke:#000000;stroke-width:0.5;" x="468.8" xlink:href="#m9e1a622e32" y="43.2"/>
      </g>
     </g>
     <g id="text_9">
      <!-- 400 -->
      <defs>
       <path d="M 37.796875 64.3125 
L 12.890625 25.390625 
L 37.796875 25.390625 
z
M 35.203125 72.90625 
L 47.609375 72.90625 
L 47.609375 25.390625 
L 58.015625 25.390625 
L 58.015625 17.1875 
L 47.609375 17.1875 
L 47.609375 0 
L 37.796875 0 
L 37.796875 17.1875 
L 4.890625 17.1875 
L 4.890625 26.703125 
z
" id="BitstreamVeraSans-Roman-34"/>
      </defs>
      <g transform="translate(457.3475 401.918125)scale(0.12 -0.12)">
       <use xlink:href="#BitstreamVeraSans-Roman-34"/>
       <use x="63.623046875" xlink:href="#BitstreamVeraSans-Roman-30"/>
       <use x="127.24609375" xlink:href="#BitstreamVeraSans-Roman-30"/>
      </g>
     </g>
    </g>
    <g id="xtick_10">
     <g id="line2d_30">
      <path clip-path="url(#p54e351855c)" d="M 518.4 388.8 
L 518.4 43.2 
" style="fill:none;stroke:#000000;stroke-dasharray:1.000000,3.000000;stroke-dashoffset:0.0;stroke-width:0.5;"/>
     </g>
     <g id="line2d_31">
      <g>
       <use style="stroke:#000000;stroke-width:0.5;" x="518.4" xlink:href="#m855dc82ab3" y="388.8"/>
      </g>
     </g>
     <g id="line2d_32">
      <g>
       <use style="stroke:#000000;stroke-width:0.5;" x="518.4" xlink:href="#m9e1a622e32" y="43.2"/>
      </g>
     </g>
     <g id="text_10">
      <!-- 450 -->
      <g transform="translate(506.9475 401.918125)scale(0.12 -0.12)">
       <use xlink:href="#BitstreamVeraSans-Roman-34"/>
       <use x="63.623046875" xlink:href="#BitstreamVeraSans-Roman-35"/>
       <use x="127.24609375" xlink:href="#BitstreamVeraSans-Roman-30"/>
      </g>
     </g>
    </g>
    <g id="text_11">
     <!-- epoch -->
     <defs>
      <path d="M 56.203125 29.59375 
L 56.203125 25.203125 
L 14.890625 25.203125 
Q 15.484375 15.921875 20.484375 11.0625 
Q 25.484375 6.203125 34.421875 6.203125 
Q 39.59375 6.203125 44.453125 7.46875 
Q 49.3125 8.734375 54.109375 11.28125 
L 54.109375 2.78125 
Q 49.265625 0.734375 44.1875 -0.34375 
Q 39.109375 -1.421875 33.890625 -1.421875 
Q 20.796875 -1.421875 13.15625 6.1875 
Q 5.515625 13.8125 5.515625 26.8125 
Q 5.515625 40.234375 12.765625 48.109375 
Q 20.015625 56 32.328125 56 
Q 43.359375 56 49.78125 48.890625 
Q 56.203125 41.796875 56.203125 29.59375 
M 47.21875 32.234375 
Q 47.125 39.59375 43.09375 43.984375 
Q 39.0625 48.390625 32.421875 48.390625 
Q 24.90625 48.390625 20.390625 44.140625 
Q 15.875 39.890625 15.1875 32.171875 
z
" id="BitstreamVeraSans-Roman-65"/>
      <path d="M 54.890625 33.015625 
L 54.890625 0 
L 45.90625 0 
L 45.90625 32.71875 
Q 45.90625 40.484375 42.875 44.328125 
Q 39.84375 48.1875 33.796875 48.1875 
Q 26.515625 48.1875 22.3125 43.546875 
Q 18.109375 38.921875 18.109375 30.90625 
L 18.109375 0 
L 9.078125 0 
L 9.078125 75.984375 
L 18.109375 75.984375 
L 18.109375 46.1875 
Q 21.34375 51.125 25.703125 53.5625 
Q 30.078125 56 35.796875 56 
Q 45.21875 56 50.046875 50.171875 
Q 54.890625 44.34375 54.890625 33.015625 
" id="BitstreamVeraSans-Roman-68"/>
      <path d="M 30.609375 48.390625 
Q 23.390625 48.390625 19.1875 42.75 
Q 14.984375 37.109375 14.984375 27.296875 
Q 14.984375 17.484375 19.15625 11.84375 
Q 23.34375 6.203125 30.609375 6.203125 
Q 37.796875 6.203125 41.984375 11.859375 
Q 46.1875 17.53125 46.1875 27.296875 
Q 46.1875 37.015625 41.984375 42.703125 
Q 37.796875 48.390625 30.609375 48.390625 
M 30.609375 56 
Q 42.328125 56 49.015625 48.375 
Q 55.71875 40.765625 55.71875 27.296875 
Q 55.71875 13.875 49.015625 6.21875 
Q 42.328125 -1.421875 30.609375 -1.421875 
Q 18.84375 -1.421875 12.171875 6.21875 
Q 5.515625 13.875 5.515625 27.296875 
Q 5.515625 40.765625 12.171875 48.375 
Q 18.84375 56 30.609375 56 
" id="BitstreamVeraSans-Roman-6f"/>
      <path d="M 48.78125 52.59375 
L 48.78125 44.1875 
Q 44.96875 46.296875 41.140625 47.34375 
Q 37.3125 48.390625 33.40625 48.390625 
Q 24.65625 48.390625 19.8125 42.84375 
Q 14.984375 37.3125 14.984375 27.296875 
Q 14.984375 17.28125 19.8125 11.734375 
Q 24.65625 6.203125 33.40625 6.203125 
Q 37.3125 6.203125 41.140625 7.25 
Q 44.96875 8.296875 48.78125 10.40625 
L 48.78125 2.09375 
Q 45.015625 0.34375 40.984375 -0.53125 
Q 36.96875 -1.421875 32.421875 -1.421875 
Q 20.0625 -1.421875 12.78125 6.34375 
Q 5.515625 14.109375 5.515625 27.296875 
Q 5.515625 40.671875 12.859375 48.328125 
Q 20.21875 56 33.015625 56 
Q 37.15625 56 41.109375 55.140625 
Q 45.0625 54.296875 48.78125 52.59375 
" id="BitstreamVeraSans-Roman-63"/>
      <path d="M 18.109375 8.203125 
L 18.109375 -20.796875 
L 9.078125 -20.796875 
L 9.078125 54.6875 
L 18.109375 54.6875 
L 18.109375 46.390625 
Q 20.953125 51.265625 25.265625 53.625 
Q 29.59375 56 35.59375 56 
Q 45.5625 56 51.78125 48.09375 
Q 58.015625 40.1875 58.015625 27.296875 
Q 58.015625 14.40625 51.78125 6.484375 
Q 45.5625 -1.421875 35.59375 -1.421875 
Q 29.59375 -1.421875 25.265625 0.953125 
Q 20.953125 3.328125 18.109375 8.203125 
M 48.6875 27.296875 
Q 48.6875 37.203125 44.609375 42.84375 
Q 40.53125 48.484375 33.40625 48.484375 
Q 26.265625 48.484375 22.1875 42.84375 
Q 18.109375 37.203125 18.109375 27.296875 
Q 18.109375 17.390625 22.1875 11.75 
Q 26.265625 6.109375 33.40625 6.109375 
Q 40.53125 6.109375 44.609375 11.75 
Q 48.6875 17.390625 48.6875 27.296875 
" id="BitstreamVeraSans-Roman-70"/>
     </defs>
     <g transform="translate(276.92625 418.531875)scale(0.12 -0.12)">
      <use xlink:href="#BitstreamVeraSans-Roman-65"/>
      <use x="61.5234375" xlink:href="#BitstreamVeraSans-Roman-70"/>
      <use x="125.0" xlink:href="#BitstreamVeraSans-Roman-6f"/>
      <use x="186.181640625" xlink:href="#BitstreamVeraSans-Roman-63"/>
      <use x="241.162109375" xlink:href="#BitstreamVeraSans-Roman-68"/>
     </g>
    </g>
   </g>
   <g id="matplotlib.axis_2">
    <g id="ytick_1">
     <g id="line2d_33">
      <path clip-path="url(#p54e351855c)" d="M 72 388.8 
L 518.4 388.8 
" style="fill:none;stroke:#000000;stroke-dasharray:1.000000,3.000000;stroke-dashoffset:0.0;stroke-width:0.5;"/>
     </g>
     <g id="line2d_34">
      <defs>
       <path d="M 0 0 
L 4 0 
" id="mcd5f0fd04e" style="stroke:#000000;stroke-width:0.5;"/>
      </defs>
      <g>
       <use style="stroke:#000000;stroke-width:0.5;" x="72.0" xlink:href="#mcd5f0fd04e" y="388.8"/>
      </g>
     </g>
     <g id="line2d_35">
      <defs>
       <path d="M 0 0 
L -4 0 
" id="m0f0e51b561" style="stroke:#000000;stroke-width:0.5;"/>
      </defs>
      <g>
       <use style="stroke:#000000;stroke-width:0.5;" x="518.4" xlink:href="#m0f0e51b561" y="388.8"/>
      </g>
     </g>
     <g id="text_12">
      <!-- 48 -->
      <defs>
       <path d="M 31.78125 34.625 
Q 24.75 34.625 20.71875 30.859375 
Q 16.703125 27.09375 16.703125 20.515625 
Q 16.703125 13.921875 20.71875 10.15625 
Q 24.75 6.390625 31.78125 6.390625 
Q 38.8125 6.390625 42.859375 10.171875 
Q 46.921875 13.96875 46.921875 20.515625 
Q 46.921875 27.09375 42.890625 30.859375 
Q 38.875 34.625 31.78125 34.625 
M 21.921875 38.8125 
Q 15.578125 40.375 12.03125 44.71875 
Q 8.5 49.078125 8.5 55.328125 
Q 8.5 64.0625 14.71875 69.140625 
Q 20.953125 74.21875 31.78125 74.21875 
Q 42.671875 74.21875 48.875 69.140625 
Q 55.078125 64.0625 55.078125 55.328125 
Q 55.078125 49.078125 51.53125 44.71875 
Q 48 40.375 41.703125 38.8125 
Q 48.828125 37.15625 52.796875 32.3125 
Q 56.78125 27.484375 56.78125 20.515625 
Q 56.78125 9.90625 50.3125 4.234375 
Q 43.84375 -1.421875 31.78125 -1.421875 
Q 19.734375 -1.421875 13.25 4.234375 
Q 6.78125 9.90625 6.78125 20.515625 
Q 6.78125 27.484375 10.78125 32.3125 
Q 14.796875 37.15625 21.921875 38.8125 
M 18.3125 54.390625 
Q 18.3125 48.734375 21.84375 45.5625 
Q 25.390625 42.390625 31.78125 42.390625 
Q 38.140625 42.390625 41.71875 45.5625 
Q 45.3125 48.734375 45.3125 54.390625 
Q 45.3125 60.0625 41.71875 63.234375 
Q 38.140625 66.40625 31.78125 66.40625 
Q 25.390625 66.40625 21.84375 63.234375 
Q 18.3125 60.0625 18.3125 54.390625 
" id="BitstreamVeraSans-Roman-38"/>
      </defs>
      <g transform="translate(52.73 392.11125)scale(0.12 -0.12)">
       <use xlink:href="#BitstreamVeraSans-Roman-34"/>
       <use x="63.623046875" xlink:href="#BitstreamVeraSans-Roman-38"/>
      </g>
     </g>
    </g>
    <g id="ytick_2">
     <g id="line2d_36">
      <path clip-path="url(#p54e351855c)" d="M 72 345.6 
L 518.4 345.6 
" style="fill:none;stroke:#000000;stroke-dasharray:1.000000,3.000000;stroke-dashoffset:0.0;stroke-width:0.5;"/>
     </g>
     <g id="line2d_37">
      <g>
       <use style="stroke:#000000;stroke-width:0.5;" x="72.0" xlink:href="#mcd5f0fd04e" y="345.6"/>
      </g>
     </g>
     <g id="line2d_38">
      <g>
       <use style="stroke:#000000;stroke-width:0.5;" x="518.4" xlink:href="#m0f0e51b561" y="345.6"/>
      </g>
     </g>
     <g id="text_13">
      <!-- 50 -->
      <g transform="translate(52.73 348.91125)scale(0.12 -0.12)">
       <use xlink:href="#BitstreamVeraSans-Roman-35"/>
       <use x="63.623046875" xlink:href="#BitstreamVeraSans-Roman-30"/>
      </g>
     </g>
    </g>
    <g id="ytick_3">
     <g id="line2d_39">
      <path clip-path="url(#p54e351855c)" d="M 72 302.4 
L 518.4 302.4 
" style="fill:none;stroke:#000000;stroke-dasharray:1.000000,3.000000;stroke-dashoffset:0.0;stroke-width:0.5;"/>
     </g>
     <g id="line2d_40">
      <g>
       <use style="stroke:#000000;stroke-width:0.5;" x="72.0" xlink:href="#mcd5f0fd04e" y="302.4"/>
      </g>
     </g>
     <g id="line2d_41">
      <g>
       <use style="stroke:#000000;stroke-width:0.5;" x="518.4" xlink:href="#m0f0e51b561" y="302.4"/>
      </g>
     </g>
     <g id="text_14">
      <!-- 52 -->
      <g transform="translate(52.73 305.71125)scale(0.12 -0.12)">
       <use xlink:href="#BitstreamVeraSans-Roman-35"/>
       <use x="63.623046875" xlink:href="#BitstreamVeraSans-Roman-32"/>
      </g>
     </g>
    </g>
    <g id="ytick_4">
     <g id="line2d_42">
      <path clip-path="url(#p54e351855c)" d="M 72 259.2 
L 518.4 259.2 
" style="fill:none;stroke:#000000;stroke-dasharray:1.000000,3.000000;stroke-dashoffset:0.0;stroke-width:0.5;"/>
     </g>
     <g id="line2d_43">
      <g>
       <use style="stroke:#000000;stroke-width:0.5;" x="72.0" xlink:href="#mcd5f0fd04e" y="259.2"/>
      </g>
     </g>
     <g id="line2d_44">
      <g>
       <use style="stroke:#000000;stroke-width:0.5;" x="518.4" xlink:href="#m0f0e51b561" y="259.2"/>
      </g>
     </g>
     <g id="text_15">
      <!-- 54 -->
      <g transform="translate(52.73 262.51125)scale(0.12 -0.12)">
       <use xlink:href="#BitstreamVeraSans-Roman-35"/>
       <use x="63.623046875" xlink:href="#BitstreamVeraSans-Roman-34"/>
      </g>
     </g>
    </g>
    <g id="ytick_5">
     <g id="line2d_45">
      <path clip-path="url(#p54e351855c)" d="M 72 216 
L 518.4 216 
" style="fill:none;stroke:#000000;stroke-dasharray:1.000000,3.000000;stroke-dashoffset:0.0;stroke-width:0.5;"/>
     </g>
     <g id="line2d_46">
      <g>
       <use style="stroke:#000000;stroke-width:0.5;" x="72.0" xlink:href="#mcd5f0fd04e" y="216.0"/>
      </g>
     </g>
     <g id="line2d_47">
      <g>
       <use style="stroke:#000000;stroke-width:0.5;" x="518.4" xlink:href="#m0f0e51b561" y="216.0"/>
      </g>
     </g>
     <g id="text_16">
      <!-- 56 -->
      <defs>
       <path d="M 33.015625 40.375 
Q 26.375 40.375 22.484375 35.828125 
Q 18.609375 31.296875 18.609375 23.390625 
Q 18.609375 15.53125 22.484375 10.953125 
Q 26.375 6.390625 33.015625 6.390625 
Q 39.65625 6.390625 43.53125 10.953125 
Q 47.40625 15.53125 47.40625 23.390625 
Q 47.40625 31.296875 43.53125 35.828125 
Q 39.65625 40.375 33.015625 40.375 
M 52.59375 71.296875 
L 52.59375 62.3125 
Q 48.875 64.0625 45.09375 64.984375 
Q 41.3125 65.921875 37.59375 65.921875 
Q 27.828125 65.921875 22.671875 59.328125 
Q 17.53125 52.734375 16.796875 39.40625 
Q 19.671875 43.65625 24.015625 45.921875 
Q 28.375 48.1875 33.59375 48.1875 
Q 44.578125 48.1875 50.953125 41.515625 
Q 57.328125 34.859375 57.328125 23.390625 
Q 57.328125 12.15625 50.6875 5.359375 
Q 44.046875 -1.421875 33.015625 -1.421875 
Q 20.359375 -1.421875 13.671875 8.265625 
Q 6.984375 17.96875 6.984375 36.375 
Q 6.984375 53.65625 15.1875 63.9375 
Q 23.390625 74.21875 37.203125 74.21875 
Q 40.921875 74.21875 44.703125 73.484375 
Q 48.484375 72.75 52.59375 71.296875 
" id="BitstreamVeraSans-Roman-36"/>
      </defs>
      <g transform="translate(52.73 219.31125)scale(0.12 -0.12)">
       <use xlink:href="#BitstreamVeraSans-Roman-35"/>
       <use x="63.623046875" xlink:href="#BitstreamVeraSans-Roman-36"/>
      </g>
     </g>
    </g>
    <g id="ytick_6">
     <g id="line2d_48">
      <path clip-path="url(#p54e351855c)" d="M 72 172.8 
L 518.4 172.8 
" style="fill:none;stroke:#000000;stroke-dasharray:1.000000,3.000000;stroke-dashoffset:0.0;stroke-width:0.5;"/>
     </g>
     <g id="line2d_49">
      <g>
       <use style="stroke:#000000;stroke-width:0.5;" x="72.0" xlink:href="#mcd5f0fd04e" y="172.8"/>
      </g>
     </g>
     <g id="line2d_50">
      <g>
       <use style="stroke:#000000;stroke-width:0.5;" x="518.4" xlink:href="#m0f0e51b561" y="172.8"/>
      </g>
     </g>
     <g id="text_17">
      <!-- 58 -->
      <g transform="translate(52.73 176.11125)scale(0.12 -0.12)">
       <use xlink:href="#BitstreamVeraSans-Roman-35"/>
       <use x="63.623046875" xlink:href="#BitstreamVeraSans-Roman-38"/>
      </g>
     </g>
    </g>
    <g id="ytick_7">
     <g id="line2d_51">
      <path clip-path="url(#p54e351855c)" d="M 72 129.6 
L 518.4 129.6 
" style="fill:none;stroke:#000000;stroke-dasharray:1.000000,3.000000;stroke-dashoffset:0.0;stroke-width:0.5;"/>
     </g>
     <g id="line2d_52">
      <g>
       <use style="stroke:#000000;stroke-width:0.5;" x="72.0" xlink:href="#mcd5f0fd04e" y="129.6"/>
      </g>
     </g>
     <g id="line2d_53">
      <g>
       <use style="stroke:#000000;stroke-width:0.5;" x="518.4" xlink:href="#m0f0e51b561" y="129.6"/>
      </g>
     </g>
     <g id="text_18">
      <!-- 60 -->
      <g transform="translate(52.73 132.91125)scale(0.12 -0.12)">
       <use xlink:href="#BitstreamVeraSans-Roman-36"/>
       <use x="63.623046875" xlink:href="#BitstreamVeraSans-Roman-30"/>
      </g>
     </g>
    </g>
    <g id="ytick_8">
     <g id="line2d_54">
      <path clip-path="url(#p54e351855c)" d="M 72 86.4 
L 518.4 86.4 
" style="fill:none;stroke:#000000;stroke-dasharray:1.000000,3.000000;stroke-dashoffset:0.0;stroke-width:0.5;"/>
     </g>
     <g id="line2d_55">
      <g>
       <use style="stroke:#000000;stroke-width:0.5;" x="72.0" xlink:href="#mcd5f0fd04e" y="86.4"/>
      </g>
     </g>
     <g id="line2d_56">
      <g>
       <use style="stroke:#000000;stroke-width:0.5;" x="518.4" xlink:href="#m0f0e51b561" y="86.4"/>
      </g>
     </g>
     <g id="text_19">
      <!-- 62 -->
      <g transform="translate(52.73 89.71125)scale(0.12 -0.12)">
       <use xlink:href="#BitstreamVeraSans-Roman-36"/>
       <use x="63.623046875" xlink:href="#BitstreamVeraSans-Roman-32"/>
      </g>
     </g>
    </g>
    <g id="ytick_9">
     <g id="line2d_57">
      <path clip-path="url(#p54e351855c)" d="M 72 43.2 
L 518.4 43.2 
" style="fill:none;stroke:#000000;stroke-dasharray:1.000000,3.000000;stroke-dashoffset:0.0;stroke-width:0.5;"/>
     </g>
     <g id="line2d_58">
      <g>
       <use style="stroke:#000000;stroke-width:0.5;" x="72.0" xlink:href="#mcd5f0fd04e" y="43.2"/>
      </g>
     </g>
     <g id="line2d_59">
      <g>
       <use style="stroke:#000000;stroke-width:0.5;" x="518.4" xlink:href="#m0f0e51b561" y="43.2"/>
      </g>
     </g>
     <g id="text_20">
      <!-- 64 -->
      <g transform="translate(52.73 46.51125)scale(0.12 -0.12)">
       <use xlink:href="#BitstreamVeraSans-Roman-36"/>
       <use x="63.623046875" xlink:href="#BitstreamVeraSans-Roman-34"/>
      </g>
     </g>
    </g>
    <g id="text_21">
     <!-- cross-entropy -->
     <defs>
      <path d="M 44.28125 53.078125 
L 44.28125 44.578125 
Q 40.484375 46.53125 36.375 47.5 
Q 32.28125 48.484375 27.875 48.484375 
Q 21.1875 48.484375 17.84375 46.4375 
Q 14.5 44.390625 14.5 40.28125 
Q 14.5 37.15625 16.890625 35.375 
Q 19.28125 33.59375 26.515625 31.984375 
L 29.59375 31.296875 
Q 39.15625 29.25 43.1875 25.515625 
Q 47.21875 21.78125 47.21875 15.09375 
Q 47.21875 7.46875 41.1875 3.015625 
Q 35.15625 -1.421875 24.609375 -1.421875 
Q 20.21875 -1.421875 15.453125 -0.5625 
Q 10.6875 0.296875 5.421875 2 
L 5.421875 11.28125 
Q 10.40625 8.6875 15.234375 7.390625 
Q 20.0625 6.109375 24.8125 6.109375 
Q 31.15625 6.109375 34.5625 8.28125 
Q 37.984375 10.453125 37.984375 14.40625 
Q 37.984375 18.0625 35.515625 20.015625 
Q 33.0625 21.96875 24.703125 23.78125 
L 21.578125 24.515625 
Q 13.234375 26.265625 9.515625 29.90625 
Q 5.8125 33.546875 5.8125 39.890625 
Q 5.8125 47.609375 11.28125 51.796875 
Q 16.75 56 26.8125 56 
Q 31.78125 56 36.171875 55.265625 
Q 40.578125 54.546875 44.28125 53.078125 
" id="BitstreamVeraSans-Roman-73"/>
      <path d="M 41.109375 46.296875 
Q 39.59375 47.171875 37.8125 47.578125 
Q 36.03125 48 33.890625 48 
Q 26.265625 48 22.1875 43.046875 
Q 18.109375 38.09375 18.109375 28.8125 
L 18.109375 0 
L 9.078125 0 
L 9.078125 54.6875 
L 18.109375 54.6875 
L 18.109375 46.1875 
Q 20.953125 51.171875 25.484375 53.578125 
Q 30.03125 56 36.53125 56 
Q 37.453125 56 38.578125 55.875 
Q 39.703125 55.765625 41.0625 55.515625 
z
" id="BitstreamVeraSans-Roman-72"/>
      <path d="M 4.890625 31.390625 
L 31.203125 31.390625 
L 31.203125 23.390625 
L 4.890625 23.390625 
z
" id="BitstreamVeraSans-Roman-2d"/>
      <path d="M 18.3125 70.21875 
L 18.3125 54.6875 
L 36.8125 54.6875 
L 36.8125 47.703125 
L 18.3125 47.703125 
L 18.3125 18.015625 
Q 18.3125 11.328125 20.140625 9.421875 
Q 21.96875 7.515625 27.59375 7.515625 
L 36.8125 7.515625 
L 36.8125 0 
L 27.59375 0 
Q 17.1875 0 13.234375 3.875 
Q 9.28125 7.765625 9.28125 18.015625 
L 9.28125 47.703125 
L 2.6875 47.703125 
L 2.6875 54.6875 
L 9.28125 54.6875 
L 9.28125 70.21875 
z
" id="BitstreamVeraSans-Roman-74"/>
      <path d="M 32.171875 -5.078125 
Q 28.375 -14.84375 24.75 -17.8125 
Q 21.140625 -20.796875 15.09375 -20.796875 
L 7.90625 -20.796875 
L 7.90625 -13.28125 
L 13.1875 -13.28125 
Q 16.890625 -13.28125 18.9375 -11.515625 
Q 21 -9.765625 23.484375 -3.21875 
L 25.09375 0.875 
L 2.984375 54.6875 
L 12.5 54.6875 
L 29.59375 11.921875 
L 46.6875 54.6875 
L 56.203125 54.6875 
z
" id="BitstreamVeraSans-Roman-79"/>
      <path d="M 54.890625 33.015625 
L 54.890625 0 
L 45.90625 0 
L 45.90625 32.71875 
Q 45.90625 40.484375 42.875 44.328125 
Q 39.84375 48.1875 33.796875 48.1875 
Q 26.515625 48.1875 22.3125 43.546875 
Q 18.109375 38.921875 18.109375 30.90625 
L 18.109375 0 
L 9.078125 0 
L 9.078125 54.6875 
L 18.109375 54.6875 
L 18.109375 46.1875 
Q 21.34375 51.125 25.703125 53.5625 
Q 30.078125 56 35.796875 56 
Q 45.21875 56 50.046875 50.171875 
Q 54.890625 44.34375 54.890625 33.015625 
" id="BitstreamVeraSans-Roman-6e"/>
     </defs>
     <g transform="translate(45.234375 257.19375)rotate(-90.0)scale(0.12 -0.12)">
      <use xlink:href="#BitstreamVeraSans-Roman-63"/>
      <use x="54.98046875" xlink:href="#BitstreamVeraSans-Roman-72"/>
      <use x="96.0625" xlink:href="#BitstreamVeraSans-Roman-6f"/>
      <use x="157.244140625" xlink:href="#BitstreamVeraSans-Roman-73"/>
      <use x="209.34375" xlink:href="#BitstreamVeraSans-Roman-73"/>
      <use x="261.443359375" xlink:href="#BitstreamVeraSans-Roman-2d"/>
      <use x="297.52734375" xlink:href="#BitstreamVeraSans-Roman-65"/>
      <use x="359.05078125" xlink:href="#BitstreamVeraSans-Roman-6e"/>
      <use x="422.4296875" xlink:href="#BitstreamVeraSans-Roman-74"/>
      <use x="461.638671875" xlink:href="#BitstreamVeraSans-Roman-72"/>
      <use x="502.720703125" xlink:href="#BitstreamVeraSans-Roman-6f"/>
      <use x="563.90234375" xlink:href="#BitstreamVeraSans-Roman-70"/>
      <use x="627.37890625" xlink:href="#BitstreamVeraSans-Roman-79"/>
     </g>
    </g>
   </g>
   <g id="text_22">
    <!-- Loss of Net -->
    <defs>
     <path d="M 9.8125 72.90625 
L 19.671875 72.90625 
L 19.671875 8.296875 
L 55.171875 8.296875 
L 55.171875 0 
L 9.8125 0 
z
" id="BitstreamVeraSans-Roman-4c"/>
     <path id="BitstreamVeraSans-Roman-20"/>
     <path d="M 9.8125 72.90625 
L 23.09375 72.90625 
L 55.421875 11.921875 
L 55.421875 72.90625 
L 64.984375 72.90625 
L 64.984375 0 
L 51.703125 0 
L 19.390625 60.984375 
L 19.390625 0 
L 9.8125 0 
z
" id="BitstreamVeraSans-Roman-4e"/>
     <path d="M 37.109375 75.984375 
L 37.109375 68.5 
L 28.515625 68.5 
Q 23.6875 68.5 21.796875 66.546875 
Q 19.921875 64.59375 19.921875 59.515625 
L 19.921875 54.6875 
L 34.71875 54.6875 
L 34.71875 47.703125 
L 19.921875 47.703125 
L 19.921875 0 
L 10.890625 0 
L 10.890625 47.703125 
L 2.296875 47.703125 
L 2.296875 54.6875 
L 10.890625 54.6875 
L 10.890625 58.5 
Q 10.890625 67.625 15.140625 71.796875 
Q 19.390625 75.984375 28.609375 75.984375 
z
" id="BitstreamVeraSans-Roman-66"/>
    </defs>
    <g transform="translate(255.126375 38.2)scale(0.144 -0.144)">
     <use xlink:href="#BitstreamVeraSans-Roman-4c"/>
     <use x="55.697265625" xlink:href="#BitstreamVeraSans-Roman-6f"/>
     <use x="116.87890625" xlink:href="#BitstreamVeraSans-Roman-73"/>
     <use x="168.978515625" xlink:href="#BitstreamVeraSans-Roman-73"/>
     <use x="221.078125" xlink:href="#BitstreamVeraSans-Roman-20"/>
     <use x="252.865234375" xlink:href="#BitstreamVeraSans-Roman-6f"/>
     <use x="314.046875" xlink:href="#BitstreamVeraSans-Roman-66"/>
     <use x="349.251953125" xlink:href="#BitstreamVeraSans-Roman-20"/>
     <use x="381.0390625" xlink:href="#BitstreamVeraSans-Roman-4e"/>
     <use x="455.84375" xlink:href="#BitstreamVeraSans-Roman-65"/>
     <use x="517.3671875" xlink:href="#BitstreamVeraSans-Roman-74"/>
    </g>
   </g>
  </g>
 </g>
 <defs>
  <clipPath id="p54e351855c">
   <rect height="345.6" width="446.4" x="72.0" y="43.2"/>
  </clipPath>
 </defs>
</svg>
